<?xml version="1.0" encoding="UTF-8"?>
<svg width="200px" height="45px" viewBox="0 0 200 45" version="1.1" xmlns="http://www.w3.org/2000/svg" xmlns:xlink="http://www.w3.org/1999/xlink">
    <!-- Generator: sketchtool 45 (43475) - http://www.bohemiancoding.com/sketch -->
    <title>8283A1A2-E51E-460A-A0CF-9A9EAD59D31D</title>
    <desc>Created with sketchtool.</desc>
    <defs>
        <path d="M369.835251,82.2086289 C370.045704,82.7010192 370.05466,83.2475725 369.861371,83.7467805 L362.871447,101.72736 C362.863798,101.748382 362.854842,101.766373 362.846633,101.787394 C362.845887,101.78872 362.844581,101.791371 362.842715,101.794401 C362.579275,102.407617 362.044933,102.835996 361.413946,102.961177 C361.404431,102.964018 361.394916,102.965343 361.38596,102.966669 C361.339317,102.975002 361.292674,102.982009 361.245471,102.986365 C361.231105,102.98769 361.218045,102.990342 361.203679,102.991667 C361.147707,102.997349 361.090616,103 361.032406,103 L361.031846,103 L361.031286,103 L361.028488,103 C360.970651,103 360.914679,102.997349 360.857774,102.991667 C360.844155,102.990342 360.830162,102.98769 360.816729,102.986365 C360.769339,102.982009 360.722137,102.975002 360.67624,102.966669 C360.666351,102.965343 360.657769,102.964018 360.647508,102.961177 C360.016334,102.835996 359.482738,102.407617 359.218365,101.794401 C359.217059,101.791371 359.216313,101.790045 359.215007,101.787394 C359.206611,101.767888 359.197842,101.748382 359.190193,101.72736 L352.694872,85.0180945 L346.540604,85.0180945 L346.540604,100.990479 C346.540604,102.0976 345.652708,103 344.561261,103 C343.47056,103 342.582104,102.0976 342.582104,100.990479 L342.582104,85.0180945 L336.979157,85.0180945 C335.886964,85.0180945 335,84.1168308 335,83.0083844 C335,81.9012637 335.886964,81.0005681 336.979157,81.0005681 L354.032594,81.0005681 C354.035392,81.0005681 354.038191,81 354.040989,81 C354.105916,81 354.169164,81.0041664 354.232226,81.0096584 C354.241554,81.0111735 354.252002,81.0124991 354.261704,81.0138248 C354.319168,81.0195062 354.375513,81.0285965 354.431298,81.0393912 C354.435589,81.0401488 354.440254,81.0416638 354.444545,81.0429895 C355.010605,81.1598375 355.495692,81.5228807 355.775923,82.0423525 C355.779655,82.0514427 355.783946,82.0597755 355.78861,82.0681083 C355.811186,82.1110977 355.831708,82.1542766 355.850925,82.1987811 C355.857829,82.2148785 355.864732,82.2294608 355.870702,82.2459369 C355.874247,82.2544591 355.879098,82.2627918 355.881896,82.2711246 L361.031286,95.5173714 L366.179557,82.2711246 C366.479752,81.4993974 367.203092,81 368.021024,81 C368.269911,81 368.513761,81.0471558 368.746603,81.1403312 C369.238034,81.3378555 369.624984,81.7168067 369.835251,82.2086289 Z M209.665847,81.1374002 C213.273394,81.8842467 215.600217,85.4552072 214.864025,89.1123495 L208.728281,119.59043 C208.724731,119.604067 208.721369,119.615432 208.718006,119.627744 C208.702875,119.705781 208.680272,119.782303 208.661031,119.858635 C208.630209,119.988003 208.599386,120.116234 208.560718,120.241245 C208.538862,120.3136 208.512149,120.383114 208.488238,120.452817 C208.444153,120.582184 208.399693,120.710036 208.348883,120.833722 C208.320862,120.903235 208.289106,120.971802 208.258283,121.039611 C208.20411,121.161023 208.147322,121.281678 208.086237,121.398923 C208.049063,121.469573 208.010769,121.537951 207.971727,121.60576 C207.909148,121.717133 207.843393,121.826991 207.774836,121.932872 C207.728882,122.003901 207.683489,122.073415 207.634733,122.141413 C207.564309,122.243127 207.490148,122.34181 207.414679,122.438031 C207.361814,122.50584 207.309696,122.572891 207.254215,122.638048 C207.169033,122.738057 207.079927,122.834088 206.990075,122.928794 C206.93721,122.98448 206.887893,123.041493 206.832413,123.094528 C206.686893,123.237912 206.535956,123.373909 206.378107,123.501761 C206.343175,123.53112 206.306188,123.556122 206.271255,123.58264 C206.138812,123.68549 206.004313,123.785688 205.865705,123.878688 C205.845904,123.891568 205.828718,123.906721 205.810225,123.919033 C205.734009,123.969227 205.656672,124.012223 205.578962,124.058439 C205.528338,124.089124 205.478835,124.120945 205.427464,124.150114 C205.27522,124.236296 205.120173,124.315659 204.964379,124.388014 C204.963071,124.38934 204.961577,124.38934 204.960269,124.390476 C204.795695,124.467566 204.629814,124.53386 204.460944,124.596555 C204.425264,124.610572 204.38753,124.620231 204.35129,124.632733 C204.222209,124.67857 204.09182,124.72043 203.960871,124.756607 C203.904643,124.77176 203.847668,124.785776 203.790693,124.799793 C203.676369,124.828962 203.562233,124.854154 203.446975,124.876315 C203.382528,124.888816 203.319388,124.899991 203.255128,124.910977 C203.141178,124.92916 203.02648,124.944313 202.912717,124.956814 C202.849764,124.963823 202.787932,124.972346 202.724046,124.976513 C202.57124,124.989014 202.417501,124.996022 202.263762,124.997348 C202.243214,124.997348 202.223413,125 202.202677,125 C201.953668,125 201.702044,124.982006 201.449673,124.952837 C201.369347,124.942798 201.289769,124.927645 201.210751,124.915144 C201.094933,124.896961 200.979115,124.886164 200.86311,124.862298 C200.80763,124.851123 200.754764,124.831803 200.699844,124.820439 C200.610739,124.798656 200.522941,124.774601 200.434957,124.751304 C200.269823,124.705087 200.106556,124.652431 199.945906,124.593903 C199.868569,124.56606 199.790859,124.538217 199.71483,124.507722 C199.526905,124.432525 199.345706,124.346154 199.167496,124.254479 C199.121542,124.230992 199.074094,124.211294 199.028888,124.186102 C198.804537,124.063743 198.5899,123.930398 198.384042,123.784173 C198.335287,123.7497 198.29008,123.710681 198.242072,123.674314 C198.087212,123.557637 197.936088,123.436414 197.792062,123.307047 C197.727055,123.248708 197.664476,123.189044 197.600776,123.127675 C197.468332,123.000012 197.34224,122.866288 197.22007,122.727071 C197.170567,122.670059 197.119196,122.614372 197.071188,122.556033 C196.907175,122.355637 196.752128,122.147096 196.612959,121.928516 C196.606048,121.920182 196.599883,121.913363 196.593719,121.903703 L186.065105,105.355456 L183.19842,119.59043 C182.554322,122.792418 179.776369,125 176.674312,125 C176.231961,125 175.784193,124.954163 175.333997,124.862298 C171.72589,124.115262 169.399814,120.544681 170.136006,116.887349 L176.272498,86.4081325 C176.274552,86.3971467 176.278662,86.3857821 176.280717,86.3746068 C176.310792,86.2285712 176.350581,86.0867025 176.390557,85.9440763 C176.410358,85.8698273 176.426237,85.7933053 176.449587,85.7209504 C176.488442,85.5942346 176.537945,85.4705494 176.584646,85.3468642 C176.661983,85.1394595 176.74978,84.9383053 176.845984,84.7430228 C176.884279,84.665175 176.917156,84.5858119 176.957692,84.5094794 C177.006448,84.420267 177.063423,84.3361686 177.114794,84.2492291 C177.176439,84.1461896 177.233414,84.042582 177.301411,83.9431413 C177.33709,83.8910534 177.376879,83.8429431 177.414614,83.7916128 C177.730872,83.3478234 178.104479,82.9388857 178.534126,82.5757853 C178.562147,82.5528666 178.586805,82.5263491 178.615012,82.5034304 C178.704865,82.4297496 178.802189,82.3644029 178.896151,82.2946998 C178.980586,82.2321942 179.064274,82.1668475 179.152072,82.1083196 C179.164401,82.0999855 179.17673,82.0888103 179.189619,82.0804762 C179.274802,82.0249789 179.363347,81.980278 179.449837,81.9289477 C179.539689,81.8753444 179.627487,81.8202259 179.718647,81.7717368 C179.83241,81.711883 179.947854,81.6590374 180.062925,81.6069494 C180.145306,81.568499 180.225444,81.5296698 180.309319,81.4950077 C180.431302,81.4448138 180.554779,81.4031435 180.679003,81.3599578 C180.760636,81.3321145 180.840962,81.3029452 180.924463,81.2777536 C181.047379,81.2404397 181.171417,81.2112704 181.295641,81.1817223 C181.384186,81.1616448 181.471236,81.1387261 181.560528,81.1222474 C181.680456,81.0993287 181.801878,81.0832288 181.922553,81.0663712 C182.01801,81.0540595 182.113279,81.0390961 182.211351,81.0303832 C182.328664,81.0192079 182.445976,81.0161774 182.563289,81.0121997 C182.663415,81.0078433 182.763542,81.0025398 182.865163,81.0038657 C182.986585,81.005381 183.106513,81.0144727 183.226628,81.0220491 C183.324699,81.0288679 183.421464,81.0315196 183.518228,81.0426949 C183.651979,81.0567113 183.783675,81.0803876 183.916119,81.1033063 C183.989346,81.116565 184.063507,81.1222474 184.136734,81.1374002 C184.14925,81.1402414 184.160084,81.1444084 184.1726,81.1470602 C184.311208,81.1764188 184.448322,81.215248 184.585436,81.2540772 C184.662212,81.2764277 184.74123,81.2930958 184.816698,81.3167722 C184.931956,81.3544649 185.043664,81.40106 185.156867,81.4432986 C185.414096,81.542171 185.664412,81.6522186 185.903147,81.7802602 C185.937519,81.7980648 185.973945,81.8126495 186.00757,81.8315905 C186.120586,81.8940961 186.226877,81.9656933 186.33541,82.0344494 C186.412186,82.0833174 186.491764,82.126503 186.565738,82.178591 C186.650174,82.2371189 186.728444,82.3030338 186.810077,82.3655394 C186.903292,82.4365684 186.998002,82.5034304 187.087854,82.5799523 C187.144642,82.6286309 187.1962,82.6828024 187.25112,82.7337538 C187.414947,82.8824413 187.572235,83.0404098 187.722425,83.2080383 C187.814893,83.3103201 187.909042,83.4118442 187.994598,83.5201872 C188.042606,83.580041 188.084637,83.6453877 188.130591,83.7078932 C188.217641,83.8262749 188.305439,83.9431413 188.38427,84.0662583 C188.391742,84.0766759 188.398653,84.0851994 188.405565,84.0961852 L198.934926,100.644053 L201.800863,86.4081325 C202.536682,82.7511796 206.059234,80.3924478 209.665847,81.1374002 Z M324.127809,81.7307108 C327.576392,83.4472109 328.982954,87.6404349 327.271379,91.0972335 L312.405831,121.117098 C312.316908,121.297663 312.219131,121.469729 312.11702,121.638772 C312.09121,121.680514 312.063704,121.722066 312.037329,121.763619 C311.950102,121.90112 311.859483,122.032955 311.764909,122.163091 C311.735142,122.203321 311.705376,122.244874 311.674102,122.285293 C311.422405,122.611103 311.146406,122.91066 310.848175,123.182829 C310.807105,123.218716 310.765658,123.25498 310.724965,123.290866 C310.60458,123.395125 310.48005,123.49504 310.353637,123.590611 C310.312567,123.62102 310.272438,123.654451 310.230991,123.683538 C310.069913,123.799885 309.905255,123.9083 309.735134,124.009537 C309.689919,124.035602 309.643008,124.060911 309.596663,124.087165 C309.454801,124.167626 309.309548,124.243932 309.162034,124.313249 C309.11437,124.336858 309.067836,124.360468 309.018853,124.382566 C308.830081,124.467182 308.637164,124.544999 308.441232,124.612805 C308.430494,124.617149 308.420509,124.621305 308.408075,124.62546 C308.370772,124.637926 308.331963,124.647558 308.293153,124.658513 C308.173334,124.697233 308.053137,124.735008 307.932187,124.766928 C307.866437,124.783549 307.800687,124.799981 307.73343,124.813958 C307.627928,124.838889 307.520543,124.861177 307.413346,124.881764 C307.341944,124.894419 307.27073,124.908395 307.199705,124.918028 C307.092885,124.934649 306.985876,124.947304 306.87736,124.958447 C306.809914,124.965058 306.742845,124.974691 306.674269,124.979035 C306.529016,124.990178 306.381879,124.995656 306.2338,124.997167 C306.210251,124.997167 306.185383,125 306.161833,125 C305.928034,125 305.695554,124.984512 305.465146,124.961092 C305.400715,124.954292 305.336472,124.945793 305.272229,124.937482 C305.070834,124.912362 304.870192,124.877798 304.673696,124.834734 C304.639973,124.827934 304.60512,124.822268 304.572151,124.813958 C304.346453,124.761261 304.124522,124.693266 303.905795,124.618472 C303.84645,124.597506 303.787483,124.575597 303.728892,124.554443 C303.504512,124.470015 303.284466,124.378411 303.07026,124.272829 C303.068188,124.271507 303.065362,124.270185 303.061971,124.268674 L303.060464,124.268674 C302.870938,124.174425 302.686875,124.067711 302.506392,123.956652 C302.446859,123.919444 302.390152,123.881857 302.332126,123.844271 C302.211553,123.763999 302.09324,123.680705 301.977189,123.593256 C301.917656,123.54887 301.858123,123.504484 301.801415,123.458776 C301.673306,123.356406 301.550096,123.247802 301.429899,123.136933 C301.397495,123.106335 301.362642,123.078759 301.330238,123.048161 C301.18442,122.906693 301.043311,122.756915 300.90842,122.602982 C300.868857,122.557085 300.833062,122.508733 300.794817,122.462647 C300.699489,122.347622 300.606798,122.229764 300.518818,122.107561 C300.478689,122.050899 300.439503,121.994047 300.400505,121.937196 C300.319683,121.817826 300.242818,121.694491 300.168025,121.569455 C300.134302,121.512792 300.100956,121.455752 300.068364,121.39739 C299.993194,121.261588 299.923864,121.121443 299.857361,120.978464 C299.834565,120.929923 299.808943,120.881382 299.786901,120.832841 C299.705325,120.646987 299.629967,120.456979 299.564217,120.263004 L299.555739,120.239394 L299.554985,120.237883 L293.983937,103.828195 L282.269118,121.82897 C282.243496,121.867689 282.211845,121.90112 282.18547,121.940029 C282.072244,122.106239 281.951671,122.26735 281.825069,122.423928 C281.775898,122.484934 281.728799,122.547452 281.678309,122.605626 C281.508188,122.79979 281.329023,122.987154 281.138178,123.163375 C281.089572,123.20795 281.037198,123.246669 280.986708,123.290866 C280.836369,123.42119 280.682261,123.546226 280.520429,123.662573 C280.447708,123.71678 280.372915,123.766832 280.298311,123.816695 C280.14684,123.917933 279.990472,124.013692 279.830524,124.102464 C279.759311,124.144016 279.688097,124.184247 279.615376,124.221644 C279.422271,124.32137 279.22389,124.410331 279.020988,124.492114 C278.979541,124.508735 278.940355,124.529889 278.898154,124.544999 C278.652486,124.637926 278.400601,124.717065 278.140427,124.782227 C278.078256,124.798659 278.01439,124.806969 277.951089,124.822268 C277.797546,124.855699 277.645134,124.892908 277.487636,124.918028 C277.440537,124.925016 277.394757,124.927661 277.347658,124.933138 C277.291704,124.941449 277.235939,124.947304 277.179609,124.952781 C276.926593,124.980357 276.672636,125 276.422823,125 C276.411143,125 276.399274,124.998489 276.387593,124.998489 C276.211067,124.997167 276.034917,124.987345 275.857448,124.973557 C275.79264,124.96808 275.728397,124.959581 275.663777,124.952781 C275.538117,124.938804 275.411327,124.922183 275.285667,124.901407 C275.219163,124.890263 275.15266,124.879309 275.085591,124.865332 C274.955409,124.838889 274.825416,124.809991 274.696931,124.77656 C274.642107,124.762772 274.587473,124.750307 274.534345,124.735008 C274.173944,124.632259 273.820326,124.500424 273.475185,124.336858 C273.419043,124.310416 273.364973,124.281329 273.310527,124.253564 C273.197489,124.198224 273.084829,124.139861 272.974806,124.074699 C272.911505,124.038435 272.846885,123.999716 272.783961,123.960996 C272.730645,123.927565 272.675445,123.896967 272.621375,123.862403 C272.587464,123.840305 272.557133,123.814051 272.522468,123.790442 C272.409054,123.712436 272.297712,123.630842 272.188254,123.546226 C272.117794,123.493529 272.046392,123.439322 271.979323,123.383793 C271.877024,123.297854 271.779624,123.20795 271.681846,123.116156 C271.618357,123.056472 271.550534,122.999431 271.488929,122.937291 C271.373254,122.820755 271.263419,122.697419 271.15528,122.571062 C271.091791,122.497589 271.030939,122.423928 270.971406,122.349133 C270.867035,122.218809 270.765301,122.085652 270.671292,121.945317 C270.628338,121.882988 270.590847,121.816504 270.549965,121.752664 C270.473288,121.631784 270.397365,121.511281 270.328035,121.384924 C270.291298,121.315606 270.25814,121.246289 270.222157,121.17565 C270.158667,121.050803 270.096874,120.925768 270.04092,120.796954 C270.008328,120.720649 269.979315,120.644154 269.949736,120.566715 C269.901319,120.443191 269.85422,120.318344 269.811831,120.189342 C269.784325,120.102082 269.759457,120.014443 269.733835,119.925861 C269.700677,119.808003 269.669027,119.689955 269.641144,119.569264 C269.617595,119.468027 269.598379,119.365467 269.580104,119.262719 C269.56767,119.197557 269.55128,119.135039 269.540729,119.068744 L265.081404,89.9016519 C264.498319,86.0856122 267.110049,82.5192658 270.915264,81.9346963 C274.7169,81.3478602 278.277579,83.9675628 278.861417,87.7834136 L280.558297,98.8804133 L290.130681,84.1713594 C290.16949,84.1116748 290.21527,84.0574675 290.255964,83.9979718 C290.332075,83.8891795 290.408376,83.7796317 290.490516,83.6748058 C290.554948,83.5920784 290.622393,83.5136951 290.689839,83.4360673 C290.770472,83.3418184 290.850917,83.2488917 290.936637,83.1582315 C291.013503,83.0783372 291.093759,83.0018426 291.172509,82.9255369 C291.25691,82.845076 291.341499,82.7668815 291.429292,82.6898203 C291.517273,82.6150257 291.607891,82.5428752 291.699074,82.4728024 C291.786302,82.4040518 291.874094,82.3375676 291.964524,82.2737277 C292.06362,82.2038438 292.165354,82.1377374 292.267653,82.0738975 C292.356952,82.018557 292.446252,81.962461 292.538942,81.9103313 C292.651038,81.8464914 292.765017,81.7890733 292.880692,81.7322218 C292.969238,81.6884027 293.05703,81.6432614 293.148402,81.6037865 C293.274251,81.546935 293.402171,81.4989606 293.53028,81.451364 C293.594712,81.4262435 293.656129,81.3969679 293.721879,81.3748694 C293.747312,81.3665589 293.772557,81.3610815 293.797991,81.352771 C293.923274,81.311785 294.049876,81.2777874 294.176478,81.2445454 C294.276139,81.2181028 294.377119,81.1876938 294.477157,81.166162 C294.58247,81.1433081 294.687783,81.1280092 294.794227,81.1093105 C294.916684,81.0892897 295.038576,81.0641693 295.16141,81.0501925 C295.244493,81.0405599 295.328329,81.0379156 295.411223,81.0309272 C295.554592,81.0190281 295.697584,81.0059957 295.8402,81.0031625 C295.916312,81.0018404 295.99167,81.0073178 296.067216,81.0086399 C296.215107,81.0101509 296.363186,81.011473 296.510511,81.0226167 C296.604521,81.0309272 296.697212,81.0462261 296.791409,81.0566143 C296.918765,81.0726687 297.045932,81.084379 297.171969,81.1064774 C297.290281,81.1266871 297.407086,81.1572849 297.523327,81.1848607 C297.624495,81.2082813 297.725287,81.2271688 297.824383,81.254178 C297.945333,81.2874201 298.064399,81.3319947 298.18403,81.3714697 C298.278793,81.4041451 298.374875,81.4317209 298.468508,81.4677961 C298.574763,81.5095376 298.679511,81.5586452 298.783882,81.6051086 C298.88976,81.6523275 298.996204,81.6974687 299.100764,81.7494095 C299.188556,81.7945507 299.274841,81.8457359 299.361315,81.8937103 C299.479627,81.9601945 299.596433,82.0255454 299.710977,82.0975069 C299.732266,82.1122392 299.755815,82.1226274 299.778046,82.1377374 C299.835318,82.1753236 299.886373,82.2181983 299.943269,82.2584288 C300.056118,82.3360566 300.168025,82.4151954 300.276729,82.5003783 C300.354725,82.562896 300.430272,82.6290024 300.506384,82.6941645 C300.603407,82.7772697 300.698924,82.8603749 300.790107,82.9485797 C300.868857,83.0228078 300.942143,83.1019466 301.016182,83.1788189 C301.0987,83.2649461 301.178768,83.3514511 301.256387,83.4419224 C301.330238,83.5276719 301.400886,83.6179543 301.470027,83.7080479 C301.538603,83.7966305 301.606991,83.8855909 301.671422,83.9777621 C301.740564,84.0763551 301.804241,84.1768368 301.868673,84.2788296 C301.925003,84.369112 301.981145,84.4590167 302.03333,84.552699 C302.096066,84.6650799 302.153527,84.7797273 302.210234,84.8947524 C302.254319,84.9835239 302.298968,85.0715398 302.339097,85.1631444 C302.39505,85.2895021 302.443279,85.4183152 302.491697,85.5480726 C302.515247,85.6119125 302.545013,85.6729193 302.566679,85.7388368 L307.36474,99.8652099 L314.783573,84.8828533 C316.495901,81.4249214 320.678473,80.0142106 324.127809,81.7307108 Z M239.49897,80 C251.926905,80 262,90.0751327 262,102.500562 C262,114.925991 251.926905,125 239.49897,125 C227.074032,125 217,114.925991 217,102.500562 C217,90.0751327 227.074032,80 239.49897,80 Z" id="path-1"></path>
    </defs>
    <g id="NOW-TV-Pagina-Come-Funziona-NOW-TV" stroke="none" stroke-width="1" fill="none" fill-rule="evenodd">
        <g id="Come-Funziona-NOW-TV" transform="translate(-170.000000, -140.000000)">
            <g id="product-hero" transform="translate(0.000000, 60.000000)">
                <mask id="mask-2" fill="white">
                    <use xlink:href="#path-1"></use>
                </mask>
                <use id="NOW-tv-Logo" fill="#FFC052" xlink:href="#path-1"></use>
            </g>
        </g>
    </g>
</svg>