<svg xmlns="http://www.w3.org/2000/svg" xmlns:xlink="http://www.w3.org/1999/xlink" width="120" height="27" viewBox="0 0 120 27">
    <defs>
        <path id="a" d="M119.901 1.325c.126.296.132.624.016.923l-4.194 10.788-.015.036-.002.005a1.183 1.183 0 0 1-.858.7l-.016.003c-.028.005-.056.01-.085.012l-.025.003a1.017 1.017 0 0 1-.103.005h-.002c-.035 0-.068-.002-.102-.005-.009 0-.017-.002-.025-.003a.971.971 0 0 1-.101-.015 1.185 1.185 0 0 1-.858-.7l-.002-.005-.015-.036-3.897-10.025h-3.693v9.583c0 .665-.532 1.206-1.187 1.206a1.199 1.199 0 0 1-1.188-1.206V3.011h-3.362C99.532 3.01 99 2.47 99 1.805 99 1.141 99.532.6 100.187.6H110.425c.039 0 .076.002.114.006l.018.002c.035.004.068.01.102.016l.008.002a1.178 1.178 0 0 1 .844.693l.011.029.007.015 3.09 7.947 3.089-7.947a1.182 1.182 0 0 1 2.193-.038zM23.8.682c2.164.449 3.56 2.591 3.118 4.785l-3.681 18.287-.006.023c-.01.046-.023.092-.034.138a3.6 3.6 0 0 1-.06.23l-.044.127a3.98 3.98 0 0 1-.084.228c-.016.042-.036.083-.054.124a3.952 3.952 0 0 1-.506.839l-.096.12c-.052.06-.105.117-.159.174-.032.034-.061.068-.095.1a3.763 3.763 0 0 1-.272.244c-.021.018-.043.033-.064.049-.08.061-.16.121-.244.177l-.033.024c-.046.03-.092.056-.139.084-.03.018-.06.038-.09.055-.092.052-.185.1-.278.143l-.003.001a3.906 3.906 0 0 1-.3.124c-.02.008-.043.014-.065.022a3.435 3.435 0 0 1-.543.146 4.258 4.258 0 0 1-.32.048c-.038.004-.075.01-.114.012a3.79 3.79 0 0 1-.276.012l-.036.002c-.15 0-.3-.01-.452-.028-.048-.006-.096-.015-.144-.023-.069-.01-.139-.017-.208-.032-.033-.006-.065-.018-.098-.025l-.159-.041c-.1-.028-.197-.06-.293-.095-.047-.016-.093-.033-.14-.051a3.824 3.824 0 0 1-.328-.152c-.027-.014-.056-.026-.083-.041a3.848 3.848 0 0 1-.387-.241c-.029-.021-.056-.045-.085-.066a4.047 4.047 0 0 1-.613-.569l-.09-.102a3.925 3.925 0 0 1-.274-.377l-.012-.015-6.317-9.929-1.72 8.541C7.533 25.675 5.866 27 4.005 27c-.266 0-.534-.028-.805-.083-2.164-.448-3.56-2.59-3.118-4.785L3.763 3.845l.005-.02c.018-.088.042-.173.066-.259.012-.044.022-.09.036-.133.023-.076.053-.15.08-.225.047-.124.1-.245.158-.362.023-.047.042-.095.067-.14.029-.054.063-.104.094-.156.037-.062.071-.124.112-.184.021-.031.045-.06.068-.091.19-.266.414-.512.671-.73.017-.013.032-.03.049-.043.054-.044.112-.083.169-.125.05-.038.1-.077.153-.112l.023-.017c.05-.033.104-.06.156-.09.054-.033.106-.066.161-.095a3.85 3.85 0 0 1 .207-.099c.05-.023.097-.046.148-.067.073-.03.147-.055.221-.081l.148-.05c.073-.022.148-.04.222-.057.054-.012.106-.026.16-.036C7.007.66 7.08.65 7.153.64c.057-.008.114-.017.173-.022.07-.006.14-.008.211-.01.06-.003.12-.006.181-.006.073.001.145.007.217.011.059.004.117.006.175.013.08.008.16.022.239.036.044.008.088.011.132.02.008.002.014.005.022.006.083.018.165.041.247.064.046.014.094.024.139.038.07.023.136.05.204.076.154.06.305.125.448.202l.063.031c.067.037.131.08.196.122.046.029.094.055.138.086.051.035.098.075.147.112.056.043.113.083.167.129.034.03.065.062.098.092.098.09.192.184.282.285.056.061.112.122.164.187.029.036.054.075.081.113.053.07.105.14.153.215l.012.018 6.318 9.928 1.72-8.541C19.522 1.65 21.636.235 23.8.682zm68.677.356a4.198 4.198 0 0 1 1.886 5.62l-8.92 18.012a4.156 4.156 0 0 1-.173.313l-.048.075a4.576 4.576 0 0 1-.163.24l-.055.073a4.224 4.224 0 0 1-.792.783c-.024.019-.049.039-.073.056-.097.07-.196.135-.298.196l-.083.046a3.843 3.843 0 0 1-.26.136l-.087.042c-.113.05-.229.097-.346.138l-.02.007c-.023.008-.046.014-.07.02a4.156 4.156 0 0 1-.335.093 4.654 4.654 0 0 1-.192.041c-.043.008-.086.016-.128.022a3.74 3.74 0 0 1-.194.024c-.04.004-.08.01-.121.012-.088.007-.176.01-.265.011l-.043.002c-.14 0-.28-.01-.418-.023-.039-.004-.077-.01-.116-.015a3.986 3.986 0 0 1-.359-.061l-.06-.013a4.166 4.166 0 0 1-.4-.117l-.107-.038a4.379 4.379 0 0 1-.4-.172 4.24 4.24 0 0 1-.333-.187l-.105-.067a4.463 4.463 0 0 1-.213-.151l-.105-.08a4.165 4.165 0 0 1-.223-.194l-.06-.053a4.56 4.56 0 0 1-.253-.267c-.024-.028-.045-.057-.068-.084a3.965 3.965 0 0 1-.563-.89c-.013-.03-.029-.06-.042-.088a4.232 4.232 0 0 1-.133-.342l-.006-.014v-.001l-3.343-9.846-7.029 10.8c-.015.024-.034.044-.05.067-.068.1-.14.196-.216.29l-.088.11c-.102.116-.21.228-.324.334-.03.027-.06.05-.091.077a3.933 3.933 0 0 1-.694.486c-.042.025-.085.05-.129.072-.116.06-.235.113-.356.162-.025.01-.049.023-.074.032a4.093 4.093 0 0 1-.455.142c-.037.01-.075.015-.113.024-.092.02-.184.043-.278.058l-.084.009a4.212 4.212 0 0 1-.555.04h-.021c-.106-.002-.212-.008-.319-.016l-.116-.012a4.323 4.323 0 0 1-.227-.031c-.04-.007-.08-.013-.12-.022a4.422 4.422 0 0 1-.233-.053l-.097-.025a4.117 4.117 0 0 1-.636-.239c-.034-.016-.066-.033-.099-.05a2.87 2.87 0 0 1-.316-.175c-.032-.02-.065-.039-.097-.06-.02-.013-.039-.029-.06-.043a4.468 4.468 0 0 1-.2-.146 3.244 3.244 0 0 1-.304-.258c-.038-.036-.079-.07-.116-.108a4.03 4.03 0 0 1-.31-.353 3.545 3.545 0 0 1-.18-.242c-.026-.037-.048-.077-.073-.115a4.046 4.046 0 0 1-.133-.221l-.064-.126a4.143 4.143 0 0 1-.108-.227c-.02-.046-.037-.092-.055-.138a4.281 4.281 0 0 1-.083-.226l-.047-.158a3.574 3.574 0 0 1-.092-.398c-.007-.04-.017-.077-.024-.117l-2.675-17.5a4.191 4.191 0 0 1 3.5-4.78 4.184 4.184 0 0 1 4.768 3.509l1.018 6.658 5.743-8.825c.024-.036.051-.069.076-.104a3.466 3.466 0 0 1 .26-.337c.048-.057.097-.113.148-.167.046-.048.094-.094.142-.14.05-.048.1-.095.154-.141.052-.045.107-.088.161-.13a3.764 3.764 0 0 1 .342-.24c.053-.033.107-.067.162-.098.068-.038.136-.073.205-.107.054-.026.106-.053.161-.077.076-.034.152-.063.23-.091.038-.015.075-.033.114-.046l.046-.013a3.97 3.97 0 0 1 .227-.065c.06-.016.12-.034.18-.047.063-.014.127-.023.19-.034.074-.012.147-.027.22-.036.05-.006.101-.007.15-.011.087-.008.173-.015.258-.017.046 0 .091.002.136.003.09.001.178.002.266.009.057.005.112.014.169.02.076.01.153.017.228.03.071.012.141.03.211.047.06.014.121.025.18.042.073.02.145.046.216.07.057.02.115.036.171.058.064.025.127.054.19.082.063.028.127.055.19.087.052.027.104.057.156.086.07.04.14.08.21.123l.04.024c.034.022.065.048.099.072.068.047.135.094.2.145.047.038.092.077.138.116.058.05.115.1.17.153.047.045.091.092.136.138a3.878 3.878 0 0 1 .511.66c.034.054.068.108.099.165.038.067.072.136.106.205.027.053.053.106.077.16.034.077.063.154.092.232.014.038.032.075.045.114l2.879 8.476 4.451-8.99a4.178 4.178 0 0 1 5.607-1.89zM41.699 0C49.156 0 55.2 6.045 55.2 13.5c0 7.456-6.044 13.5-13.5 13.5s-13.5-6.044-13.5-13.5C28.2 6.045 34.244 0 41.7 0z"/>
    </defs>
    <g fill="none" fill-rule="evenodd">
        <mask id="b" fill="#fff">
            <use xlink:href="#a"/>
        </mask>
        <use fill="#FEFEFE" xlink:href="#a"/>
        <g fill="#FFF" mask="url(#b)">
            <path d="M0 0h120v27H0z"/>
        </g>
    </g>
</svg>
